 0
SECTION
 2
HEADER
 9
$ACADVER
 1
AC1009
 0
ENDSEC
 0
SECTION
 2
TABLES
 0
TABLE
 2
LTYPE
 70
1
 0
LTYPE
 2
CONTINUOUS
 70
64
 3
solid line
 72
65
 73
0
 40
0.0
 0
ENDTAB
 0
TABLE
 2
LAYER
 70
6
 0
LAYER
 2
0
 70
0
 62
7
 6
CONTINUOUS
 0
LAYER
 2
EDITEUR_CINEMA_4D
 70
64
 62
7
 6
CONTINUOUS
 0
LAYER
 2
MOTION_DROP
 70
64
 62
7
 6
CONTINUOUS
 0
LAYER
 2
MESH
 70
64
 62
7
 6
CONTINUOUS
 0
LAYER
 2
CERCLE
 70
64
 62
7
 6
CONTINUOUS
 0
LAYER
 2
DROP_1
 70
64
 62
7
 6
CONTINUOUS
 0
LAYER
 2
1_SWEEP
 70
64
 62
150
 6
CONTINUOUS
 0
LAYER
 2
COUVERCLE_1
 70
64
 62
150
 6
CONTINUOUS
 0
LAYER
 2
COUVERCLE_2
 70
64
 62
150
 6
CONTINUOUS
 0
LAYER
 2
DROP_2
 70
64
 62
7
 6
CONTINUOUS
 0
LAYER
 2
2_SWEEP
 70
64
 62
7
 6
CONTINUOUS
 0
LAYER
 2
SHAPE_INSTANCE
 70
64
 62
7
 6
CONTINUOUS
 0
LAYER
 2
CERCLE_2
 70
64
 62
7
 6
CONTINUOUS
 0
LAYER
 2
2___TRACER
 70
64
 62
7
 6
CONTINUOUS
 0
LAYER
 2
DROP_3
 70
64
 62
7
 6
CONTINUOUS
 0
LAYER
 2
3_SWEEP
 70
64
 62
7
 6
CONTINUOUS
 0
LAYER
 2
SHAPE_INSTANCE_2
 70
64
 62
7
 6
CONTINUOUS
 0
LAYER
 2
CERCLE_3
 70
64
 62
7
 6
CONTINUOUS
 0
LAYER
 2
3___TRACER
 70
64
 62
7
 6
CONTINUOUS
 0
LAYER
 2
DROP_4
 70
64
 62
7
 6
CONTINUOUS
 0
LAYER
 2
4_SWEEP
 70
64
 62
7
 6
CONTINUOUS
 0
LAYER
 2
SHAPE_INSTANCE_3
 70
64
 62
7
 6
CONTINUOUS
 0
LAYER
 2
CERCLE_4
 70
64
 62
7
 6
CONTINUOUS
 0
LAYER
 2
4___TRACER
 70
64
 62
7
 6
CONTINUOUS
 0
LAYER
 2
DROP_5
 70
64
 62
7
 6
CONTINUOUS
 0
LAYER
 2
5_SWEEP
 70
64
 62
7
 6
CONTINUOUS
 0
LAYER
 2
SHAPE_INSTANCE_4
 70
64
 62
7
 6
CONTINUOUS
 0
LAYER
 2
CERCLE_5
 70
64
 62
7
 6
CONTINUOUS
 0
LAYER
 2
5___TRACER
 70
64
 62
7
 6
CONTINUOUS
 0
LAYER
 2
DROP_6
 70
64
 62
7
 6
CONTINUOUS
 0
LAYER
 2
6_SWEEP
 70
64
 62
7
 6
CONTINUOUS
 0
LAYER
 2
SHAPE_INSTANCE_5
 70
64
 62
7
 6
CONTINUOUS
 0
LAYER
 2
CERCLE_6
 70
64
 62
7
 6
CONTINUOUS
 0
LAYER
 2
6___TRACER
 70
64
 62
7
 6
CONTINUOUS
 0
LAYER
 2
GENERATORS
 70
64
 62
7
 6
CONTINUOUS
 0
LAYER
 2
1
 70
64
 62
7
 6
CONTINUOUS
 0
LAYER
 2
2
 70
64
 62
7
 6
CONTINUOUS
 0
LAYER
 2
3
 70
64
 62
7
 6
CONTINUOUS
 0
LAYER
 2
4
 70
64
 62
7
 6
CONTINUOUS
 0
LAYER
 2
5
 70
64
 62
7
 6
CONTINUOUS
 0
LAYER
 2
6
 70
64
 62
7
 6
CONTINUOUS
 0
ENDTAB
 0
ENDSEC
 0
SECTION
 2
BLOCKS
 0
ENDSEC
 0
SECTION
 2
ENTITIES
 0
POLYLINE
 8
CERCLE
 66
1
 10
0.0
 20
0.0
 30
0.0
 70
9
 0
VERTEX
 8
CERCLE
 10
0.2
 20
0.0001
 30
-0.0004
 70
32
 0
VERTEX
 8
CERCLE
 10
0.0004
 20
-0.001
 30
0.2
 70
32
 0
VERTEX
 8
CERCLE
 10
-0.2
 20
-0.0001
 30
0.0004
 70
32
 0
VERTEX
 8
CERCLE
 10
-0.0004
 20
0.001
 30
-0.2
 70
32
 0
SEQEND
 0
POLYLINE
 8
1_SWEEP
 66
1
 10
0.0
 20
0.0
 30
0.0
 70
64
 71
44
 72
80
 0
VERTEX
 8
1_SWEEP
 10
-0.3136
 20
0.0524
 30
0.9481
 70
192
 0
VERTEX
 8
1_SWEEP
 10
-0.3136
 20
0.0524
 30
0.9481
 70
192
 0
VERTEX
 8
1_SWEEP
 10
-0.3136
 20
0.0524
 30
0.9481
 70
192
 0
VERTEX
 8
1_SWEEP
 10
-0.3136
 20
0.0524
 30
0.9481
 70
192
 0
VERTEX
 8
1_SWEEP
 10
-0.5597
 20
-0.0083
 30
0.8563
 70
192
 0
VERTEX
 8
1_SWEEP
 10
-0.543
 20
-0.0408
 30
0.8534
 70
192
 0
VERTEX
 8
1_SWEEP
 10
-0.5272
 20
-0.0304
 30
0.8221
 70
192
 0
VERTEX
 8
1_SWEEP
 10
-0.5439
 20
0.0021
 30
0.825
 70
192
 0
VERTEX
 8
1_SWEEP
 10
-0.7677
 20
-0.1157
 30
0.7087
 70
192
 0
VERTEX
 8
1_SWEEP
 10
-0.7174
 20
-0.1794
 30
0.7145
 70
192
 0
VERTEX
 8
1_SWEEP
 10
-0.6712
 20
-0.1495
 30
0.6548
 70
192
 0
VERTEX
 8
1_SWEEP
 10
-0.7215
 20
-0.0858
 30
0.6491
 70
192
 0
VERTEX
 8
1_SWEEP
 10
-0.9136
 20
-0.2612
 30
0.5155
 70
192
 0
VERTEX
 8
1_SWEEP
 10
-0.8222
 20
-0.3459
 30
0.5465
 70
192
 0
VERTEX
 8
1_SWEEP
 10
-0.7381
 20
-0.2849
 30
0.4712
 70
192
 0
VERTEX
 8
1_SWEEP
 10
-0.8295
 20
-0.2001
 30
0.4403
 70
192
 0
VERTEX
 8
1_SWEEP
 10
-0.9819
 20
-0.4274
 30
0.2948
 70
192
 0
VERTEX
 8
1_SWEEP
 10
-0.8528
 20
-0.5215
 30
0.3663
 70
192
 0
VERTEX
 8
1_SWEEP
 10
-0.7333
 20
-0.4174
 30
0.2917
 70
192
 0
VERTEX
 8
1_SWEEP
 10
-0.8625
 20
-0.3234
 30
0.2202
 70
192
 0
VERTEX
 8
1_SWEEP
 10
-0.9694
 20
-0.5942
 30
0.0674
 70
192
 0
VERTEX
 8
1_SWEEP
 10
-0.8138
 20
-0.6881
 30
0.1895
 70
192
 0
VERTEX
 8
1_SWEEP
 10
-0.6712
 20
-0.5325
 30
0.1309
 70
192
 0
VERTEX
 8
1_SWEEP
 10
-0.8267
 20
-0.4385
 30
0.0088
 70
192
 0
VERTEX
 8
1_SWEEP
 10
-0.8837
 20
-0.7427
 30
-0.1467
 70
192
 0
VERTEX
 8
1_SWEEP
 10
-0.7177
 20
-0.8308
 30
0.0287
 70
192
 0
VERTEX
 8
1_SWEEP
 10
-0.5704
 20
-0.6222
 30
-0.0032
 70
192
 0
VERTEX
 8
1_SWEEP
 10
-0.7364
 20
-0.5341
 30
-0.1786
 70
192
 0
VERTEX
 8
1_SWEEP
 10
-0.7396
 20
-0.8586
 30
-0.33
 70
192
 0
VERTEX
 8
1_SWEEP
 10
-0.5818
 20
-0.9376
 30
-0.1095
 70
192
 0
VERTEX
 8
1_SWEEP
 10
-0.4516
 20
-0.6864
 30
-0.1105
 70
192
 0
VERTEX
 8
1_SWEEP
 10
-0.6095
 20
-0.6074
 30
-0.331
 70
192
 0
VERTEX
 8
1_SWEEP
 10
-0.5504
 20
-0.9272
 30
-0.4609
 70
192
 0
VERTEX
 8
1_SWEEP
 10
-0.4259
 20
-0.9916
 30
-0.2296
 70
192
 0
VERTEX
 8
1_SWEEP
 10
-0.3365
 20
-0.737
 30
-0.2052
 70
192
 0
VERTEX
 8
1_SWEEP
 10
-0.4611
 20
-0.6726
 30
-0.4366
 70
192
 0
VERTEX
 8
1_SWEEP
 10
-0.3453
 20
-0.9461
 30
-0.5295
 70
192
 0
VERTEX
 8
1_SWEEP
 10
-0.2681
 20
-0.9925
 30
-0.3325
 70
192
 0
VERTEX
 8
1_SWEEP
 10
-0.2257
 20
-0.7826
 30
-0.2986
 70
192
 0
VERTEX
 8
1_SWEEP
 10
-0.3029
 20
-0.7361
 30
-0.4956
 70
192
 0
VERTEX
 8
1_SWEEP
 10
-0.1321
 20
-0.8747
 30
-0.4663
 70
192
 0
VERTEX
 8
1_SWEEP
 10
-0.1321
 20
-0.8747
 30
-0.4663
 70
192
 0
VERTEX
 8
1_SWEEP
 10
-0.1321
 20
-0.8747
 30
-0.4663
 70
192
 0
VERTEX
 8
1_SWEEP
 10
-0.1321
 20
-0.8747
 30
-0.4663
 70
192
 0
VERTEX
 8
1_SWEEP
 10
0
 20
0
 30
0
 70
128
 71
1
 72
5
 73
6
 74
6
 0
VERTEX
 8
1_SWEEP
 10
0
 20
0
 30
0
 70
128
 71
2
 72
6
 73
7
 74
7
 0
VERTEX
 8
1_SWEEP
 10
0
 20
0
 30
0
 70
128
 71
3
 72
7
 73
8
 74
8
 0
VERTEX
 8
1_SWEEP
 10
0
 20
0
 30
0
 70
128
 71
4
 72
8
 73
5
 74
5
 0
VERTEX
 8
1_SWEEP
 10
0
 20
0
 30
0
 70
128
 71
5
 72
9
 73
10
 74
10
 0
VERTEX
 8
1_SWEEP
 10
0
 20
0
 30
0
 70
128
 71
6
 72
10
 73
11
 74
11
 0
VERTEX
 8
1_SWEEP
 10
0
 20
0
 30
0
 70
128
 71
7
 72
11
 73
12
 74
12
 0
VERTEX
 8
1_SWEEP
 10
0
 20
0
 30
0
 70
128
 71
8
 72
12
 73
9
 74
9
 0
VERTEX
 8
1_SWEEP
 10
0
 20
0
 30
0
 70
128
 71
9
 72
13
 73
14
 74
14
 0
VERTEX
 8
1_SWEEP
 10
0
 20
0
 30
0
 70
128
 71
10
 72
14
 73
15
 74
15
 0
VERTEX
 8
1_SWEEP
 10
0
 20
0
 30
0
 70
128
 71
11
 72
15
 73
16
 74
16
 0
VERTEX
 8
1_SWEEP
 10
0
 20
0
 30
0
 70
128
 71
12
 72
16
 73
13
 74
13
 0
VERTEX
 8
1_SWEEP
 10
0
 20
0
 30
0
 70
128
 71
13
 72
17
 73
18
 74
18
 0
VERTEX
 8
1_SWEEP
 10
0
 20
0
 30
0
 70
128
 71
14
 72
18
 73
19
 74
19
 0
VERTEX
 8
1_SWEEP
 10
0
 20
0
 30
0
 70
128
 71
15
 72
19
 73
20
 74
20
 0
VERTEX
 8
1_SWEEP
 10
0
 20
0
 30
0
 70
128
 71
16
 72
20
 73
17
 74
17
 0
VERTEX
 8
1_SWEEP
 10
0
 20
0
 30
0
 70
128
 71
17
 72
21
 73
22
 74
22
 0
VERTEX
 8
1_SWEEP
 10
0
 20
0
 30
0
 70
128
 71
18
 72
22
 73
23
 74
23
 0
VERTEX
 8
1_SWEEP
 10
0
 20
0
 30
0
 70
128
 71
19
 72
23
 73
24
 74
24
 0
VERTEX
 8
1_SWEEP
 10
0
 20
0
 30
0
 70
128
 71
20
 72
24
 73
21
 74
21
 0
VERTEX
 8
1_SWEEP
 10
0
 20
0
 30
0
 70
128
 71
21
 72
25
 73
26
 74
26
 0
VERTEX
 8
1_SWEEP
 10
0
 20
0
 30
0
 70
128
 71
22
 72
26
 73
27
 74
27
 0
VERTEX
 8
1_SWEEP
 10
0
 20
0
 30
0
 70
128
 71
23
 72
27
 73
28
 74
28
 0
VERTEX
 8
1_SWEEP
 10
0
 20
0
 30
0
 70
128
 71
24
 72
28
 73
25
 74
25
 0
VERTEX
 8
1_SWEEP
 10
0
 20
0
 30
0
 70
128
 71
25
 72
29
 73
30
 74
30
 0
VERTEX
 8
1_SWEEP
 10
0
 20
0
 30
0
 70
128
 71
26
 72
30
 73
31
 74
31
 0
VERTEX
 8
1_SWEEP
 10
0
 20
0
 30
0
 70
128
 71
27
 72
31
 73
32
 74
32
 0
VERTEX
 8
1_SWEEP
 10
0
 20
0
 30
0
 70
128
 71
28
 72
32
 73
29
 74
29
 0
VERTEX
 8
1_SWEEP
 10
0
 20
0
 30
0
 70
128
 71
29
 72
33
 73
34
 74
34
 0
VERTEX
 8
1_SWEEP
 10
0
 20
0
 30
0
 70
128
 71
30
 72
34
 73
35
 74
35
 0
VERTEX
 8
1_SWEEP
 10
0
 20
0
 30
0
 70
128
 71
31
 72
35
 73
36
 74
36
 0
VERTEX
 8
1_SWEEP
 10
0
 20
0
 30
0
 70
128
 71
32
 72
36
 73
33
 74
33
 0
VERTEX
 8
1_SWEEP
 10
0
 20
0
 30
0
 70
128
 71
33
 72
37
 73
38
 74
38
 0
VERTEX
 8
1_SWEEP
 10
0
 20
0
 30
0
 70
128
 71
34
 72
38
 73
39
 74
39
 0
VERTEX
 8
1_SWEEP
 10
0
 20
0
 30
0
 70
128
 71
35
 72
39
 73
40
 74
40
 0
VERTEX
 8
1_SWEEP
 10
0
 20
0
 30
0
 70
128
 71
36
 72
40
 73
37
 74
37
 0
VERTEX
 8
1_SWEEP
 10
0
 20
0
 30
0
 70
128
 71
37
 72
41
 73
42
 74
42
 0
VERTEX
 8
1_SWEEP
 10
0
 20
0
 30
0
 70
128
 71
38
 72
42
 73
43
 74
43
 0
VERTEX
 8
1_SWEEP
 10
0
 20
0
 30
0
 70
128
 71
39
 72
43
 73
44
 74
44
 0
VERTEX
 8
1_SWEEP
 10
0
 20
0
 30
0
 70
128
 71
40
 72
44
 73
41
 74
41
 0
VERTEX
 8
1_SWEEP
 10
0
 20
0
 30
0
 70
128
 71
1
 72
6
 73
2
 74
2
 0
VERTEX
 8
1_SWEEP
 10
0
 20
0
 30
0
 70
128
 71
2
 72
7
 73
3
 74
3
 0
VERTEX
 8
1_SWEEP
 10
0
 20
0
 30
0
 70
128
 71
3
 72
8
 73
4
 74
4
 0
VERTEX
 8
1_SWEEP
 10
0
 20
0
 30
0
 70
128
 71
4
 72
5
 73
1
 74
1
 0
VERTEX
 8
1_SWEEP
 10
0
 20
0
 30
0
 70
128
 71
5
 72
10
 73
6
 74
6
 0
VERTEX
 8
1_SWEEP
 10
0
 20
0
 30
0
 70
128
 71
6
 72
11
 73
7
 74
7
 0
VERTEX
 8
1_SWEEP
 10
0
 20
0
 30
0
 70
128
 71
7
 72
12
 73
8
 74
8
 0
VERTEX
 8
1_SWEEP
 10
0
 20
0
 30
0
 70
128
 71
8
 72
9
 73
5
 74
5
 0
VERTEX
 8
1_SWEEP
 10
0
 20
0
 30
0
 70
128
 71
9
 72
14
 73
10
 74
10
 0
VERTEX
 8
1_SWEEP
 10
0
 20
0
 30
0
 70
128
 71
10
 72
15
 73
11
 74
11
 0
VERTEX
 8
1_SWEEP
 10
0
 20
0
 30
0
 70
128
 71
11
 72
16
 73
12
 74
12
 0
VERTEX
 8
1_SWEEP
 10
0
 20
0
 30
0
 70
128
 71
12
 72
13
 73
9
 74
9
 0
VERTEX
 8
1_SWEEP
 10
0
 20
0
 30
0
 70
128
 71
13
 72
18
 73
14
 74
14
 0
VERTEX
 8
1_SWEEP
 10
0
 20
0
 30
0
 70
128
 71
14
 72
19
 73
15
 74
15
 0
VERTEX
 8
1_SWEEP
 10
0
 20
0
 30
0
 70
128
 71
15
 72
20
 73
16
 74
16
 0
VERTEX
 8
1_SWEEP
 10
0
 20
0
 30
0
 70
128
 71
16
 72
17
 73
13
 74
13
 0
VERTEX
 8
1_SWEEP
 10
0
 20
0
 30
0
 70
128
 71
17
 72
22
 73
18
 74
18
 0
VERTEX
 8
1_SWEEP
 10
0
 20
0
 30
0
 70
128
 71
18
 72
23
 73
19
 74
19
 0
VERTEX
 8
1_SWEEP
 10
0
 20
0
 30
0
 70
128
 71
19
 72
24
 73
20
 74
20
 0
VERTEX
 8
1_SWEEP
 10
0
 20
0
 30
0
 70
128
 71
20
 72
21
 73
17
 74
17
 0
VERTEX
 8
1_SWEEP
 10
0
 20
0
 30
0
 70
128
 71
21
 72
26
 73
22
 74
22
 0
VERTEX
 8
1_SWEEP
 10
0
 20
0
 30
0
 70
128
 71
22
 72
27
 73
23
 74
23
 0
VERTEX
 8
1_SWEEP
 10
0
 20
0
 30
0
 70
128
 71
23
 72
28
 73
24
 74
24
 0
VERTEX
 8
1_SWEEP
 10
0
 20
0
 30
0
 70
128
 71
24
 72
25
 73
21
 74
21
 0
VERTEX
 8
1_SWEEP
 10
0
 20
0
 30
0
 70
128
 71
25
 72
30
 73
26
 74
26
 0
VERTEX
 8
1_SWEEP
 10
0
 20
0
 30
0
 70
128
 71
26
 72
31
 73
27
 74
27
 0
VERTEX
 8
1_SWEEP
 10
0
 20
0
 30
0
 70
128
 71
27
 72
32
 73
28
 74
28
 0
VERTEX
 8
1_SWEEP
 10
0
 20
0
 30
0
 70
128
 71
28
 72
29
 73
25
 74
25
 0
VERTEX
 8
1_SWEEP
 10
0
 20
0
 30
0
 70
128
 71
29
 72
34
 73
30
 74
30
 0
VERTEX
 8
1_SWEEP
 10
0
 20
0
 30
0
 70
128
 71
30
 72
35
 73
31
 74
31
 0
VERTEX
 8
1_SWEEP
 10
0
 20
0
 30
0
 70
128
 71
31
 72
36
 73
32
 74
32
 0
VERTEX
 8
1_SWEEP
 10
0
 20
0
 30
0
 70
128
 71
32
 72
33
 73
29
 74
29
 0
VERTEX
 8
1_SWEEP
 10
0
 20
0
 30
0
 70
128
 71
33
 72
38
 73
34
 74
34
 0
VERTEX
 8
1_SWEEP
 10
0
 20
0
 30
0
 70
128
 71
34
 72
39
 73
35
 74
35
 0
VERTEX
 8
1_SWEEP
 10
0
 20
0
 30
0
 70
128
 71
35
 72
40
 73
36
 74
36
 0
VERTEX
 8
1_SWEEP
 10
0
 20
0
 30
0
 70
128
 71
36
 72
37
 73
33
 74
33
 0
VERTEX
 8
1_SWEEP
 10
0
 20
0
 30
0
 70
128
 71
37
 72
42
 73
38
 74
38
 0
VERTEX
 8
1_SWEEP
 10
0
 20
0
 30
0
 70
128
 71
38
 72
43
 73
39
 74
39
 0
VERTEX
 8
1_SWEEP
 10
0
 20
0
 30
0
 70
128
 71
39
 72
44
 73
40
 74
40
 0
VERTEX
 8
1_SWEEP
 10
0
 20
0
 30
0
 70
128
 71
40
 72
41
 73
37
 74
37
 0
SEQEND
 0
POLYLINE
 8
COUVERCLE_1
 66
1
 10
0.0
 20
0.0
 30
0.0
 70
64
 71
4
 72
0
 0
VERTEX
 8
COUVERCLE_1
 10
-0.3136
 20
0.0524
 30
0.9481
 70
192
 0
VERTEX
 8
COUVERCLE_1
 10
-0.3136
 20
0.0524
 30
0.9481
 70
192
 0
VERTEX
 8
COUVERCLE_1
 10
-0.3136
 20
0.0524
 30
0.9481
 70
192
 0
VERTEX
 8
COUVERCLE_1
 10
-0.3136
 20
0.0524
 30
0.9481
 70
192
 0
SEQEND
 0
POLYLINE
 8
COUVERCLE_2
 66
1
 10
0.0
 20
0.0
 30
0.0
 70
64
 71
4
 72
0
 0
VERTEX
 8
COUVERCLE_2
 10
-0.1321
 20
-0.8747
 30
-0.4663
 70
192
 0
VERTEX
 8
COUVERCLE_2
 10
-0.1321
 20
-0.8747
 30
-0.4663
 70
192
 0
VERTEX
 8
COUVERCLE_2
 10
-0.1321
 20
-0.8747
 30
-0.4663
 70
192
 0
VERTEX
 8
COUVERCLE_2
 10
-0.1321
 20
-0.8747
 30
-0.4663
 70
192
 0
SEQEND
 0
POLYLINE
 8
CERCLE_2
 66
1
 10
0.0
 20
0.0
 30
0.0
 70
9
 0
VERTEX
 8
CERCLE_2
 10
0.2
 20
0.0001
 30
-0.0004
 70
32
 0
VERTEX
 8
CERCLE_2
 10
0.0004
 20
-0.001
 30
0.2
 70
32
 0
VERTEX
 8
CERCLE_2
 10
-0.2
 20
-0.0001
 30
0.0004
 70
32
 0
VERTEX
 8
CERCLE_2
 10
-0.0004
 20
0.001
 30
-0.2
 70
32
 0
SEQEND
 0
POLYLINE
 8
2___TRACER
 66
1
 10
0.0
 20
0.0
 30
0.0
 70
8
 0
VERTEX
 8
2___TRACER
 10
-0.2519
 20
0.1943
 30
1.9361
 70
32
 0
VERTEX
 8
2___TRACER
 10
-0.9026
 20
0.3282
 30
1.7054
 70
32
 0
VERTEX
 8
2___TRACER
 10
-1.451
 20
0.2888
 30
1.2177
 70
32
 0
VERTEX
 8
2___TRACER
 10
-1.751
 20
0.1012
 30
0.5575
 70
32
 0
VERTEX
 8
2___TRACER
 10
-1.7207
 20
-0.1571
 30
-0.1366
 70
32
 0
VERTEX
 8
2___TRACER
 10
-1.3772
 20
-0.3914
 30
-0.7134
 70
32
 0
VERTEX
 8
2___TRACER
 10
-0.8287
 20
-0.5315
 30
-1.0582
 70
32
 0
VERTEX
 8
2___TRACER
 10
-0.2305
 20
-0.5568
 30
-1.1259
 70
32
 0
VERTEX
 8
2___TRACER
 10
0.2705
 20
-0.4943
 30
-0.9464
 70
32
 0
VERTEX
 8
2___TRACER
 10
0.5776
 20
-0.3973
 30
-0.6065
 70
32
 0
VERTEX
 8
2___TRACER
 10
0.6604
 20
-0.3181
 30
-0.2169
 70
32
 0
SEQEND
 0
POLYLINE
 8
CERCLE_3
 66
1
 10
0.0
 20
0.0
 30
0.0
 70
9
 0
VERTEX
 8
CERCLE_3
 10
0.2
 20
0.0001
 30
-0.0004
 70
32
 0
VERTEX
 8
CERCLE_3
 10
0.0004
 20
-0.001
 30
0.2
 70
32
 0
VERTEX
 8
CERCLE_3
 10
-0.2
 20
-0.0001
 30
0.0004
 70
32
 0
VERTEX
 8
CERCLE_3
 10
-0.0004
 20
0.001
 30
-0.2
 70
32
 0
SEQEND
 0
POLYLINE
 8
3___TRACER
 66
1
 10
0.0
 20
0.0
 30
0.0
 70
8
 0
VERTEX
 8
3___TRACER
 10
0.108
 20
0.2277
 30
2.8684
 70
32
 0
VERTEX
 8
3___TRACER
 10
-0.6967
 20
0.6741
 30
2.6208
 70
32
 0
VERTEX
 8
3___TRACER
 10
-1.4511
 20
0.9204
 30
1.9931
 70
32
 0
VERTEX
 8
3___TRACER
 10
-1.9105
 20
0.9347
 30
1.0864
 70
32
 0
VERTEX
 8
3___TRACER
 10
-1.9094
 20
0.7848
 30
0.1414
 70
32
 0
VERTEX
 8
3___TRACER
 10
-1.478
 20
0.5913
 30
-0.5585
 70
32
 0
VERTEX
 8
3___TRACER
 10
-0.839
 20
0.4424
 30
-0.8315
 70
32
 0
VERTEX
 8
3___TRACER
 10
-0.2773
 20
0.3409
 30
-0.6877
 70
32
 0
VERTEX
 8
3___TRACER
 10
0.0164
 20
0.2268
 30
-0.3019
 70
32
 0
VERTEX
 8
3___TRACER
 10
0.0184
 20
0.0398
 30
0.0978
 70
32
 0
VERTEX
 8
3___TRACER
 10
-0.1633
 20
-0.2344
 30
0.3438
 70
32
 0
SEQEND
 0
POLYLINE
 8
CERCLE_4
 66
1
 10
0.0
 20
0.0
 30
0.0
 70
9
 0
VERTEX
 8
CERCLE_4
 10
0.2
 20
0.0001
 30
-0.0004
 70
32
 0
VERTEX
 8
CERCLE_4
 10
0.0004
 20
-0.001
 30
0.2
 70
32
 0
VERTEX
 8
CERCLE_4
 10
-0.2
 20
-0.0001
 30
0.0004
 70
32
 0
VERTEX
 8
CERCLE_4
 10
-0.0004
 20
0.001
 30
-0.2
 70
32
 0
SEQEND
 0
POLYLINE
 8
4___TRACER
 66
1
 10
0.0
 20
0.0
 30
0.0
 70
8
 0
VERTEX
 8
4___TRACER
 10
0.4542
 20
1.0938
 30
3.2292
 70
32
 0
VERTEX
 8
4___TRACER
 10
-0.9116
 20
1.6507
 30
2.6154
 70
32
 0
VERTEX
 8
4___TRACER
 10
-2.0197
 20
1.6013
 30
1.5316
 70
32
 0
VERTEX
 8
4___TRACER
 10
-2.5294
 20
1.1335
 30
0.3265
 70
32
 0
VERTEX
 8
4___TRACER
 10
-2.4351
 20
0.581
 30
-0.6846
 70
32
 0
VERTEX
 8
4___TRACER
 10
-1.9383
 20
0.192
 30
-1.3513
 70
32
 0
VERTEX
 8
4___TRACER
 10
-1.2778
 20
0.0385
 30
-1.6342
 70
32
 0
VERTEX
 8
4___TRACER
 10
-0.6774
 20
0.0449
 30
-1.555
 70
32
 0
VERTEX
 8
4___TRACER
 10
-0.3046
 20
0.0576
 30
-1.2338
 70
32
 0
VERTEX
 8
4___TRACER
 10
-0.1802
 20
-0.0589
 30
-0.8773
 70
32
 0
VERTEX
 8
4___TRACER
 10
-0.1622
 20
-0.3376
 30
-0.6509
 70
32
 0
SEQEND
 0
POLYLINE
 8
CERCLE_5
 66
1
 10
0.0
 20
0.0
 30
0.0
 70
9
 0
VERTEX
 8
CERCLE_5
 10
0.2
 20
0.0001
 30
-0.0004
 70
32
 0
VERTEX
 8
CERCLE_5
 10
0.0004
 20
-0.001
 30
0.2
 70
32
 0
VERTEX
 8
CERCLE_5
 10
-0.2
 20
-0.0001
 30
0.0004
 70
32
 0
VERTEX
 8
CERCLE_5
 10
-0.0004
 20
0.001
 30
-0.2
 70
32
 0
SEQEND
 0
POLYLINE
 8
5___TRACER
 66
1
 10
0.0
 20
0.0
 30
0.0
 70
8
 0
VERTEX
 8
5___TRACER
 10
1.0803
 20
1.8192
 30
3.5151
 70
32
 0
VERTEX
 8
5___TRACER
 10
-0.5801
 20
2.5821
 30
2.4653
 70
32
 0
VERTEX
 8
5___TRACER
 10
-1.8186
 20
2.3176
 30
0.8633
 70
32
 0
VERTEX
 8
5___TRACER
 10
-2.1531
 20
1.3131
 30
-0.5824
 70
32
 0
VERTEX
 8
5___TRACER
 10
-1.7932
 20
0.2131
 30
-1.3574
 70
32
 0
VERTEX
 8
5___TRACER
 10
-1.2537
 20
-0.518
 30
-1.5162
 70
32
 0
VERTEX
 8
5___TRACER
 10
-0.8095
 20
-0.8054
 30
-1.3722
 70
32
 0
VERTEX
 8
5___TRACER
 10
-0.4924
 20
-0.8213
 30
-1.0908
 70
32
 0
VERTEX
 8
5___TRACER
 10
-0.3188
 20
-0.7978
 30
-0.716
 70
32
 0
VERTEX
 8
5___TRACER
 10
-0.3034
 20
-0.8951
 30
-0.3429
 70
32
 0
VERTEX
 8
5___TRACER
 10
-0.3892
 20
-1.14
 30
-0.099
 70
32
 0
SEQEND
 0
POLYLINE
 8
CERCLE_6
 66
1
 10
0.0
 20
0.0
 30
0.0
 70
9
 0
VERTEX
 8
CERCLE_6
 10
0.2
 20
0.0001
 30
-0.0004
 70
32
 0
VERTEX
 8
CERCLE_6
 10
0.0004
 20
-0.001
 30
0.2
 70
32
 0
VERTEX
 8
CERCLE_6
 10
-0.2
 20
-0.0001
 30
0.0004
 70
32
 0
VERTEX
 8
CERCLE_6
 10
-0.0004
 20
0.001
 30
-0.2
 70
32
 0
SEQEND
 0
POLYLINE
 8
6___TRACER
 66
1
 10
0.0
 20
0.0
 30
0.0
 70
8
 0
VERTEX
 8
6___TRACER
 10
1.552
 20
2.4966
 30
4.0795
 70
32
 0
VERTEX
 8
6___TRACER
 10
-0.3725
 20
3.474
 30
2.8671
 70
32
 0
VERTEX
 8
6___TRACER
 10
-1.7246
 20
3.3105
 30
0.9356
 70
32
 0
VERTEX
 8
6___TRACER
 10
-1.9401
 20
2.2524
 30
-0.8514
 70
32
 0
VERTEX
 8
6___TRACER
 10
-1.2821
 20
0.988
 30
-1.7293
 70
32
 0
VERTEX
 8
6___TRACER
 10
-0.4939
 20
0.1121
 30
-1.6764
 70
32
 0
VERTEX
 8
6___TRACER
 10
-0.0196
 20
-0.2208
 30
-1.1871
 70
32
 0
VERTEX
 8
6___TRACER
 10
0.1251
 20
-0.1864
 30
-0.6266
 70
32
 0
VERTEX
 8
6___TRACER
 10
-0.0128
 20
-0.054
 30
-0.1219
 70
32
 0
VERTEX
 8
6___TRACER
 10
-0.4112
 20
-0.0497
 30
0.1803
 70
32
 0
VERTEX
 8
6___TRACER
 10
-0.89
 20
-0.2934
 30
0.0811
 70
32
 0
SEQEND
 0
POLYLINE
 8
1
 66
1
 10
0.0
 20
0.0
 30
0.0
 70
64
 71
1
 72
0
 0
VERTEX
 8
1
 10
0.9081
 20
0.4104
 30
0.0829
 70
192
 0
SEQEND
 0
POLYLINE
 8
2
 66
1
 10
0.0
 20
0.0
 30
0.0
 70
64
 71
1
 72
0
 0
VERTEX
 8
2
 10
1.0241
 20
0.956
 30
-0.7471
 70
192
 0
SEQEND
 0
POLYLINE
 8
3
 66
1
 10
0.0
 20
0.0
 30
0.0
 70
64
 71
1
 72
0
 0
VERTEX
 8
3
 10
0.9425
 20
0.1778
 30
-1.3699
 70
192
 0
SEQEND
 0
POLYLINE
 8
4
 66
1
 10
0.0
 20
0.0
 30
0.0
 70
64
 71
1
 72
0
 0
VERTEX
 8
4
 10
1.0948
 20
1.0781
 30
-1.7775
 70
192
 0
SEQEND
 0
POLYLINE
 8
5
 66
1
 10
0.0
 20
0.0
 30
0.0
 70
64
 71
1
 72
0
 0
VERTEX
 8
5
 10
0.1225
 20
1.2859
 30
-1.8851
 70
192
 0
SEQEND
 0
POLYLINE
 8
6
 66
1
 10
0.0
 20
0.0
 30
0.0
 70
64
 71
1
 72
0
 0
VERTEX
 8
6
 10
-0.0609
 20
0.5124
 30
-2.4918
 70
192
 0
SEQEND
 0
ENDSEC
 0
EOF
